<?xml version="1.0" encoding="utf-8"?>
<!-- Generator: Adobe Illustrator 24.2.3, SVG Export Plug-In . SVG Version: 6.00 Build 0)  -->
<svg version="1.1" xmlns="http://www.w3.org/2000/svg" xmlns:xlink="http://www.w3.org/1999/xlink" x="0px" y="0px"
	 viewBox="0 0 404.73 404.73" style="enable-background:new 0 0 404.73 404.73;" xml:space="preserve">
<style type="text/css">
	.st0{display:none;}
	.st1{display:inline;}
	.st2{fill:#EBEBEB;}
	.st3{fill:#E0E0E0;}
	.st4{fill:#F0F0F0;}
	.st5{fill:#407BFF;}
	.st6{opacity:0.9;fill:#FFFFFF;}
	.st7{fill:#F5F5F5;}
	.st8{fill:#263238;}
	.st9{opacity:0.3;fill:#407BFF;}
	.st10{fill:#FFFFFF;}
	.st11{opacity:0.3;fill:#FFFFFF;}
	.st12{opacity:0.2;}
</style>
<g id="Background_Complete" class="st0">
	<g class="st1">
		<rect x="-45.8" y="332.93" class="st2" width="500" height="0.25"/>
		<rect x="382.42" y="349.02" class="st2" width="21.68" height="0.25"/>
		<rect x="264.76" y="343.84" class="st2" width="34.11" height="0.25"/>
		<rect x="350.79" y="339.74" class="st2" width="44.53" height="0.25"/>
		<rect x="116.08" y="344.78" class="st2" width="11.14" height="0.25"/>
		<rect x="68.79" y="344.78" class="st2" width="38.39" height="0.25"/>
		<rect x="20.51" y="340.56" class="st2" width="27.7" height="0.25"/>
		<path class="st2" d="M191.22,288.33H-1.88c-3.15,0-5.71-2.56-5.71-5.71V11.19c0-3.15,2.56-5.71,5.71-5.71h193.1
			c3.15,0,5.71,2.56,5.71,5.71v271.43C196.92,285.77,194.36,288.33,191.22,288.33z M-1.88,5.73c-3.01,0-5.46,2.45-5.46,5.46v271.43
			c0,3.01,2.45,5.46,5.46,5.46h193.1c3.01,0,5.46-2.45,5.46-5.46V11.19c0-3.01-2.45-5.46-5.46-5.46H-1.88z"/>
		<path class="st2" d="M407.51,288.33h-193.1c-3.15,0-5.71-2.56-5.71-5.71V11.19c0-3.15,2.56-5.71,5.71-5.71h193.1
			c3.15,0,5.71,2.56,5.71,5.71v271.43C413.22,285.77,410.66,288.33,407.51,288.33z M214.41,5.73c-3.01,0-5.46,2.45-5.46,5.46v271.43
			c0,3.01,2.45,5.46,5.46,5.46h193.1c3.01,0,5.46-2.45,5.46-5.46V11.19c0-3.01-2.45-5.46-5.46-5.46H214.41z"/>
	</g>
	<g class="st1">
		<g>
			<path class="st2" d="M170.27,151.41l0.45-13.14l-8.07-2.64c-0.33-4.49-1.08-8.92-2.15-13.2l6.84-5.04l-4.65-12.34l-8.46,0.68
				c-2.02-3.99-4.39-7.79-7.04-11.35l4.38-7.31l-9.01-9.61l-7.56,3.87c-3.41-2.89-7-5.52-10.84-7.83l1.22-8.39l-12-5.45l-5.5,6.44
				c-4.19-1.36-8.53-2.38-13.02-3.05l-2.04-8.23l-13.18-0.45l-2.6,8.07c-4.53,0.37-8.92,1.08-13.2,2.15l-5.08-6.8L46.45,62.4
				l0.68,8.46c-3.99,2.05-7.79,4.42-11.35,7.07l-7.28-4.38l-9.65,8.97l3.87,7.6c-2.89,3.37-5.52,7-7.8,10.84L6.53,99.7l-5.48,12
				l6.48,5.5c-1.36,4.19-2.41,8.56-3.05,13.02l-8.26,2.08l-0.45,13.14l8.1,2.64c0.33,4.52,1.08,8.92,2.15,13.19l-6.84,5.04
				l4.64,12.34l8.46-0.68c2.02,3.99,4.39,7.79,7.04,11.35l-4.38,7.31l9.01,9.61l7.56-3.87c3.37,2.89,7,5.52,10.84,7.84l-1.26,8.39
				l12,5.45l5.53-6.44c4.19,1.36,8.53,2.38,13.02,3.05l2.04,8.23l13.18,0.45l2.6-8.07c4.52-0.37,8.92-1.08,13.19-2.15l5.04,6.8
				l12.34-4.61l-0.65-8.46c3.99-2.05,7.75-4.42,11.35-7.08l7.28,4.38l9.65-8.97l-3.87-7.6c2.89-3.37,5.52-7,7.8-10.84l8.39,1.26
				l5.48-12l-6.48-5.5c1.36-4.19,2.41-8.53,3.05-13.02L170.27,151.41z M81.48,193.98c-28.78-0.99-51.31-25.12-50.33-53.9
				c0.99-28.81,25.12-51.35,53.9-50.36c28.78,0.99,51.31,25.12,50.33,53.93C134.39,172.43,110.26,194.97,81.48,193.98z"/>
		</g>
		<g>
			<path class="st2" d="M395.16,107.95l3.31-3.09l-1.32-2.61c1.01-1.18,1.91-2.44,2.69-3.74l2.9,0.44l1.88-4.14l-2.23-1.9
				c0.48-1.46,0.83-2.97,1.05-4.48l2.85-0.71l0.15-4.54l-2.79-0.9c-0.12-1.54-0.36-3.05-0.73-4.55l2.35-1.75l-1.6-4.25l-2.91,0.23
				c-0.69-1.35-1.5-2.66-2.43-3.92l1.51-2.5l-3.1-3.32l-2.6,1.33c-1.19-1.01-2.44-1.91-3.74-2.69l0.42-2.9l-4.13-1.89l-1.9,2.23
				c-1.47-0.47-2.98-0.82-4.49-1.04l-0.71-2.84l-4.54-0.16l-0.91,2.8c-1.53,0.12-3.05,0.36-4.55,0.74l-1.74-2.35l-4.26,1.59
				l0.24,2.92c-1.35,0.69-2.68,1.5-3.92,2.43l-2.52-1.51l-3.31,3.09l1.33,2.62c-1.02,1.18-1.91,2.44-2.69,3.74l-2.9-0.44l-1.88,4.14
				l2.23,1.9c-0.48,1.46-0.83,2.97-1.05,4.48l-2.85,0.71l-0.15,4.54l2.79,0.9c0.12,1.53,0.36,3.05,0.73,4.55l-2.35,1.74l1.6,4.25
				l2.92-0.22c0.69,1.35,1.5,2.66,2.43,3.92l-1.51,2.5l3.1,3.32l2.6-1.33c1.19,1.01,2.44,1.91,3.74,2.69l-0.43,2.89l4.13,1.89
				l1.9-2.22c1.47,0.47,2.97,0.81,4.49,1.04l0.71,2.84l4.54,0.16l0.91-2.8c1.53-0.12,3.05-0.36,4.55-0.74l1.74,2.35l4.26-1.59
				l-0.24-2.92c1.35-0.69,2.67-1.49,3.92-2.43L395.16,107.95z M371.54,88.82c-2.44-2.61-2.3-6.71,0.31-9.14
				c2.61-2.44,6.71-2.3,9.15,0.31c2.44,2.61,2.3,6.71-0.32,9.15C378.08,91.57,373.98,91.43,371.54,88.82z"/>
		</g>
		<path class="st2" d="M274.19,242.87l-10.34-7.14c0-0.01,0-0.02-0.01-0.02c-1.02-3.76-2.43-7.37-4.16-10.77l2.65-10.4l-15-16.06
			l-10.56,1.93c-3.27-1.95-6.78-3.61-10.45-4.88c-0.01,0-0.02,0-0.03-0.01l-6.42-10.81l-21.96-0.75l-7.14,10.34
			c-0.01,0-0.03,0.01-0.04,0.01c-3.75,1.02-7.37,2.43-10.76,4.15l-10.39-2.65l-16.06,15l1.93,10.54c0,0,0,0.01-0.01,0.01
			c-1.99,3.31-3.61,6.82-4.88,10.49l-10.81,6.42l-0.75,21.97l10.35,7.15c1.02,3.78,2.39,7.39,4.15,10.82c0,0,0,0,0,0l-2.64,10.37
			l15,16.06l10.49-1.92c3.31,1.96,6.83,3.61,10.55,4.89c0,0,0.01,0,0.01,0l6.41,10.79l21.96,0.75l7.14-10.33
			c3.8-1.02,7.42-2.43,10.85-4.16c0,0,0,0,0,0l10.35,2.64l16.06-15l-1.93-10.54c1.99-3.31,3.61-6.82,4.88-10.5c0,0,0,0,0,0
			l10.81-6.42L274.19,242.87z M205.74,276.26c-13.65-0.47-24.32-11.93-23.85-25.55c0.47-13.65,11.89-24.32,25.55-23.85
			c13.65,0.47,24.32,11.89,23.85,25.55C230.82,266.02,219.39,276.72,205.74,276.26z"/>
		<path class="st2" d="M297.75,180.48c-0.02,0-0.05,0-0.07,0l-17.32-0.59c-0.72-0.02-1.38-0.41-1.74-1.03l-4.66-7.85
			c-2.48-0.9-4.92-2.03-7.28-3.38l-7.51,1.37c-0.71,0.13-1.43-0.11-1.92-0.64l-11.83-12.66c-0.49-0.53-0.68-1.27-0.5-1.96l1.89-7.41
			c-1.15-2.35-2.11-4.85-2.86-7.47l-7.53-5.2c-0.59-0.41-0.94-1.09-0.91-1.81l0.59-17.32c0.02-0.72,0.41-1.38,1.03-1.74l7.87-4.67
			c0.93-2.55,2.06-4.99,3.37-7.25l-1.38-7.53c-0.13-0.71,0.11-1.43,0.64-1.92l12.67-11.83c0.53-0.49,1.27-0.68,1.96-0.5l7.43,1.9
			c2.41-1.17,4.9-2.13,7.45-2.87l5.2-7.53c0.41-0.59,1.08-0.96,1.81-0.91l17.32,0.59c0.72,0.02,1.38,0.41,1.74,1.03l4.67,7.87
			c2.48,0.91,4.91,2.04,7.23,3.37l7.55-1.38c0.71-0.13,1.43,0.11,1.92,0.64l11.83,12.67c0.49,0.53,0.68,1.27,0.5,1.96l-1.9,7.44
			c1.17,2.41,2.13,4.9,2.87,7.45l7.52,5.2c0.59,0.41,0.93,1.09,0.91,1.81l-0.59,17.32c-0.02,0.72-0.41,1.38-1.03,1.74l-7.87,4.67
			c-0.93,2.55-2.06,4.98-3.37,7.24l1.38,7.54c0.13,0.71-0.11,1.43-0.64,1.92l-12.66,11.82c-0.53,0.49-1.26,0.68-1.96,0.5l-7.4-1.89
			c-2.44,1.18-4.95,2.14-7.49,2.87l-5.19,7.52C299.09,180.14,298.44,180.48,297.75,180.48z M281.66,175.71l15.01,0.51l4.97-7.2
			c0.28-0.41,0.71-0.71,1.19-0.84c2.76-0.74,5.51-1.79,8.15-3.13c0,0,0.01,0,0.01-0.01c0.44-0.22,0.96-0.28,1.46-0.15l7.04,1.79
			l10.98-10.25l-1.31-7.17c-0.09-0.51,0-1.03,0.27-1.47c1.45-2.4,2.68-5.04,3.65-7.83c0.16-0.5,0.5-0.91,0.94-1.17l7.52-4.47
			l0.51-15.01l-7.2-4.97c-0.38-0.26-0.66-0.64-0.8-1.07c-0.02-0.05-0.03-0.11-0.05-0.17c-0.75-2.76-1.8-5.47-3.11-8.05
			c-0.23-0.46-0.29-0.98-0.16-1.48l1.8-7.08l-10.25-10.98l-7.19,1.32c-0.5,0.09-1.02,0-1.46-0.26c-2.5-1.49-5.14-2.72-7.85-3.67
			c-0.15-0.05-0.31-0.12-0.44-0.21c-0.29-0.18-0.53-0.43-0.71-0.72l-4.47-7.53l-15.01-0.51l-4.97,7.2c-0.3,0.43-0.74,0.73-1.24,0.85
			c-2.78,0.76-5.48,1.8-8.05,3.11c-0.46,0.23-0.98,0.29-1.48,0.16l-7.08-1.8l-10.98,10.25l1.31,7.17c0.08,0.45,0.02,0.92-0.19,1.32
			c-0.03,0.06-0.06,0.11-0.1,0.17c-1.45,2.41-2.68,5.06-3.65,7.86c-0.16,0.47-0.49,0.87-0.92,1.12l-7.53,4.47l-0.51,15.01l7.21,4.98
			c0.41,0.28,0.71,0.7,0.84,1.19c0.78,2.88,1.82,5.61,3.11,8.12c0.07,0.14,0.13,0.3,0.17,0.45c0.08,0.34,0.08,0.69,0,1.03l-1.8,7.05
			l10.25,10.98l7.14-1.31c0.5-0.09,1.02,0,1.45,0.26c2.54,1.5,5.2,2.74,7.89,3.66c0.49,0.15,0.91,0.48,1.17,0.93L281.66,175.71z
			 M306.44,80.9L306.44,80.9L306.44,80.9z M290.93,156.74c-0.37,0-0.74-0.01-1.11-0.02c-17.45-0.6-31.15-15.28-30.56-32.72
			c0.6-17.45,15.3-31.15,32.72-30.56c17.45,0.6,31.15,15.28,30.56,32.72c-0.29,8.44-3.85,16.27-10.03,22.04
			C306.6,153.74,298.98,156.74,290.93,156.74z M290.89,97.65c-14.7,0-26.9,11.7-27.41,26.5c-0.52,15.12,11.36,27.84,26.48,28.36
			c7.33,0.25,14.31-2.37,19.67-7.38c5.35-5,8.44-11.79,8.69-19.1c0.52-15.12-11.36-27.84-26.48-28.36
			C291.52,97.66,291.21,97.65,290.89,97.65z"/>
		<g>
			<polygon class="st3" points="337.64,55.85 330.47,53.93 328.54,46.75 331.35,43.95 334.31,50.08 340.45,53.05 			"/>
			<path class="st3" d="M338.09,51.05c1.31-1.31,1.31-3.44,0-4.74c-1.31-1.31-3.43-1.3-4.73,0.01l3.57-5.35l4.79,2.42l1.05,5.03
				L338.09,51.05z"/>
			<path class="st4" d="M330.78,44.51l5.26-5.26l7.17,1.93l1.93,7.17l-5.26,5.26l-7.17-1.93L330.78,44.51z M340.33,48.81
				c1.31-1.31,1.31-3.44,0-4.74c-1.31-1.31-3.43-1.3-4.73,0.01c-1.31,1.31-1.31,3.42,0,4.72C336.9,50.11,339.02,50.12,340.33,48.81z
				"/>
		</g>
		<g>
			<polygon class="st3" points="44.42,247.24 48.27,246.2 49.31,242.36 47.8,240.85 46.21,244.14 42.92,245.73 			"/>
			<path class="st3" d="M44.18,244.66c-0.7-0.7-0.7-1.84,0-2.55c0.7-0.7,1.84-0.7,2.54,0.01l-1.91-2.87l-2.57,1.3l-0.56,2.7
				L44.18,244.66z"/>
			<path class="st4" d="M48.1,241.15l-2.82-2.82l-3.85,1.03l-1.03,3.85l2.82,2.82l3.85-1.03L48.1,241.15z M42.98,243.46
				c-0.7-0.7-0.7-1.84,0-2.55c0.7-0.7,1.84-0.7,2.54,0.01c0.7,0.7,0.7,1.83,0,2.54C44.82,244.15,43.68,244.16,42.98,243.46z"/>
		</g>
		<g>
			<path class="st4" d="M30.56,36.19l3.19,3.19c0.83,0.83,2.19,0.83,3.02,0l0,0c0.83-0.83,0.83-2.19,0-3.02l-3.19-3.19
				c-0.83-0.83-2.19-0.83-3.02,0l0,0C29.73,34,29.73,35.36,30.56,36.19z"/>
			<path class="st3" d="M28.31,28.24c2.46-0.88,5.13,0.27,5.96,2.58c0.83,2.31-0.49,4.9-2.95,5.79c-2.46,0.88-5.13-0.27-5.96-2.58
				C24.53,31.71,25.85,29.12,28.31,28.24z"/>
			
				<rect x="29.13" y="27.37" transform="matrix(-0.338 -0.9411 0.9411 -0.338 9.384 71.4403)" class="st4" width="1.37" height="10.1"/>
		</g>
	</g>
</g>
<g id="Background_Simple" class="st0">
	<g class="st1">
		<path class="st5" d="M373.11,75.95c39.29,31.84,35.52,75.55,1.84,100.47c-16.15,11.95-48.67,9.64-67.17,18.07
			c-24.13,11.01-36.38,31.39-54.87,47.66c-45.99,40.48-60.95,20.47-113.32,21c-36.81,0.37-71.81,31.4-108.7,10.1
			c-45.08-26.04-17.16-78.18,19.64-98.31c42.27-23.12,15.68-77.47,76.48-117.51C186.85,18.05,314.76,27.34,373.11,75.95z"/>
		<path class="st6" d="M373.11,75.95c39.29,31.84,35.52,75.55,1.84,100.47c-16.15,11.95-48.67,9.64-67.17,18.07
			c-24.13,11.01-36.38,31.39-54.87,47.66c-45.99,40.48-60.95,20.47-113.32,21c-36.81,0.37-71.81,31.4-108.7,10.1
			c-45.08-26.04-17.16-78.18,19.64-98.31c42.27-23.12,15.68-77.47,76.48-117.51C186.85,18.05,314.76,27.34,373.11,75.95z"/>
	</g>
</g>
<g id="Shadow_1_">
	<ellipse id="_x3C_Path_x3E__373_" class="st7" cx="204.2" cy="366.77" rx="193.89" ry="11.32"/>
</g>
<g id="Oops_x21_">
	<g>
		<path class="st8" d="M40.92,71.18c-1-4.4-0.55-8.11,1.34-11.12c1.9-3.01,5.03-5.01,9.41-6.01c4.49-1.02,8.22-0.6,11.2,1.26
			c2.98,1.86,4.96,4.96,5.95,9.3c0.72,3.15,0.77,5.86,0.17,8.12c-0.6,2.26-1.78,4.18-3.53,5.76c-1.75,1.58-4.12,2.71-7.12,3.39
			c-3.04,0.69-5.67,0.78-7.88,0.26c-2.21-0.52-4.18-1.68-5.89-3.5C42.85,76.81,41.63,74.33,40.92,71.18z M49.26,69.32
			c0.62,2.72,1.57,4.57,2.85,5.52c1.28,0.96,2.79,1.24,4.54,0.84c1.79-0.41,3.04-1.3,3.76-2.69c0.72-1.39,0.73-3.59,0.05-6.61
			c-0.58-2.54-1.51-4.28-2.8-5.22c-1.29-0.94-2.81-1.21-4.57-0.81c-1.68,0.38-2.9,1.28-3.64,2.7C48.7,64.49,48.64,66.57,49.26,69.32
			z"/>
		<path class="st8" d="M72.79,67.88c-0.68-2.98-0.23-5.67,1.34-8.06c1.57-2.39,4.07-3.97,7.49-4.75c3.91-0.89,7.13-0.43,9.64,1.39
			c2.02,1.46,3.34,3.53,3.95,6.21c0.68,3.01,0.25,5.7-1.31,8.07c-1.56,2.37-4.1,3.96-7.62,4.76c-3.14,0.71-5.86,0.5-8.16-0.66
			C75.3,73.4,73.52,71.08,72.79,67.88z M80.3,66.15c0.4,1.74,1.04,2.95,1.94,3.62c0.89,0.67,1.88,0.89,2.94,0.65
			c1.08-0.25,1.87-0.86,2.38-1.84c0.51-0.98,0.55-2.38,0.14-4.19c-0.39-1.69-1.02-2.88-1.91-3.54c-0.89-0.67-1.85-0.89-2.88-0.65
			c-1.09,0.25-1.9,0.87-2.42,1.88C79.97,63.07,79.91,64.44,80.3,66.15z"/>
		<path class="st8" d="M102.79,79.1l-6.13-26.98l7.01-1.59l0.66,2.89c0.69-1.43,1.4-2.46,2.11-3.07c0.96-0.82,2.1-1.39,3.43-1.69
			c2.61-0.59,4.86-0.05,6.74,1.62c1.88,1.67,3.16,3.98,3.83,6.93c0.74,3.25,0.52,5.91-0.64,7.97c-1.17,2.07-2.94,3.37-5.32,3.91
			c-1.15,0.26-2.25,0.3-3.29,0.13c-1.04-0.18-2.02-0.57-2.95-1.17l2.12,9.33L102.79,79.1z M106.4,60.24
			c0.35,1.55,0.94,2.62,1.76,3.22c0.82,0.6,1.73,0.79,2.72,0.56c0.87-0.2,1.52-0.72,1.95-1.57c0.43-0.85,0.44-2.14,0.05-3.85
			c-0.36-1.58-0.93-2.67-1.71-3.28c-0.78-0.6-1.61-0.8-2.5-0.6c-0.96,0.22-1.67,0.77-2.14,1.67
			C106.06,57.27,106.01,58.56,106.4,60.24z"/>
		<path class="st8" d="M123.64,60.83l7.27-2.39c0.51,0.81,1.08,1.35,1.72,1.6c0.64,0.25,1.42,0.28,2.34,0.07
			c1.01-0.23,1.74-0.62,2.19-1.17c0.36-0.42,0.48-0.86,0.37-1.34c-0.12-0.54-0.5-0.89-1.13-1.06c-0.45-0.12-1.58-0.13-3.4-0.04
			c-2.7,0.14-4.61,0.13-5.71-0.03c-1.1-0.16-2.1-0.62-3-1.38c-0.9-0.76-1.49-1.73-1.75-2.91c-0.29-1.29-0.17-2.48,0.37-3.58
			c0.54-1.1,1.41-2.03,2.62-2.79c1.21-0.76,2.92-1.39,5.12-1.89c2.33-0.53,4.09-0.74,5.28-0.64c1.19,0.1,2.24,0.45,3.15,1.02
			c0.91,0.58,1.76,1.45,2.54,2.62l-6.94,2.31c-0.33-0.58-0.74-0.97-1.23-1.17c-0.68-0.26-1.43-0.29-2.27-0.1
			c-0.85,0.19-1.43,0.48-1.75,0.87c-0.32,0.39-0.43,0.8-0.33,1.23c0.11,0.48,0.44,0.78,0.98,0.92c0.55,0.13,1.66,0.11,3.35-0.07
			c2.55-0.28,4.5-0.31,5.82-0.09c1.33,0.23,2.42,0.73,3.28,1.52c0.86,0.79,1.41,1.74,1.66,2.85c0.26,1.13,0.16,2.3-0.27,3.52
			c-0.44,1.22-1.32,2.31-2.64,3.28c-1.32,0.96-3.25,1.73-5.77,2.31c-3.57,0.81-6.23,0.88-7.97,0.21
			C125.79,63.83,124.49,62.61,123.64,60.83z"/>
		<path class="st8" d="M148.05,36.1l8.21-0.05l0.04,6.3l-1.51,12.67l-5.08,0.03l-1.62-12.65L148.05,36.1z M148.45,56.98l7.66-0.04
			l0.04,6.77l-7.66,0.04L148.45,56.98z"/>
	</g>
</g>
<g id="_x34_04">
	<g>
		<g>
			<path class="st8" d="M82.88,122.11c-0.06,0-0.12-0.01-0.18-0.03c-4.5-1.74-7.19-3.45-8.59-5.49c-1.02,0.2-2.15,0.07-3.23-0.44
				c-1.05-0.5-2.06-1.37-2.78-2.62c-0.68,0.52-1.51,0.66-2.43,0.38c-1.02-0.32-2.07-1.17-2.95-2.41c-0.56,0.4-1.13,0.46-1.55,0.43
				c-2.97-0.24-7-6.16-7.29-12.47c-0.01-0.28,0.2-0.51,0.48-0.52c0.27-0.02,0.51,0.2,0.52,0.48c0.27,5.99,4.11,11.33,6.37,11.51
				c0.37,0.04,0.67-0.08,0.93-0.28c-1.36-2.38-2.06-5.78-1.02-9.41c0.86-3,1.62-4.18,2.53-3.96c1.72,0.43,1.5,6.97,0.58,11.29
				c-0.21,0.98-0.51,1.68-0.85,2.18c0.79,1.17,1.72,1.95,2.54,2.21c0.73,0.23,1.27,0.04,1.67-0.35c-0.79-1.94-0.95-4.57,0.12-7.94
				c1.4-4.43,1.97-4.55,2.31-4.62c0.24-0.05,0.48,0.03,0.64,0.22c0.92,1.04-0.18,7.92-1.34,11.32c-0.15,0.44-0.34,0.83-0.56,1.16
				c0.62,1.22,1.54,2.05,2.49,2.5c0.77,0.37,1.56,0.5,2.27,0.43c-0.09-0.19-0.17-0.38-0.24-0.58c-0.79-2.15-0.41-4.63,1.18-7.58
				c1.06-1.96,1.92-2.87,2.71-2.87c0,0,0,0,0,0c0.24,0,0.67,0.09,0.99,0.66c0.87,1.61,0.24,6.92-1.48,9.55
				c-0.41,0.62-0.97,1.09-1.62,1.4c1.34,1.76,3.88,3.31,7.95,4.89c0.26,0.1,0.39,0.39,0.29,0.65
				C83.27,121.99,83.08,122.11,82.88,122.11z M77.23,105.64c0,0-0.57,0-1.83,2.35c-1.45,2.68-1.81,4.89-1.13,6.76
				c0.08,0.23,0.18,0.45,0.3,0.67c0.53-0.23,0.99-0.6,1.32-1.1c1.4-2.14,2.07-6.54,1.55-8.26C77.34,105.7,77.23,105.64,77.23,105.64
				z M70.06,101.43c-0.26,0.49-0.69,1.48-1.34,3.53c-0.86,2.71-0.86,4.88-0.38,6.55c0.03-0.08,0.06-0.17,0.09-0.25
				C69.6,107.82,70.17,103.08,70.06,101.43z M63.47,98.28c-0.17,0.16-0.65,0.79-1.35,3.22c-0.92,3.21-0.35,6.14,0.73,8.25
				c0.21-0.43,0.35-0.93,0.45-1.4C64.33,103.43,64.03,98.99,63.47,98.28z"/>
			<path class="st8" d="M120.9,174.53c-1.52,0-3.13-0.35-4.56-1.19c-0.24-0.14-0.32-0.45-0.18-0.68c0.14-0.24,0.45-0.32,0.68-0.18
				c3.57,2.09,8.18,0.63,9.13-0.89c0.11-0.18,0.21-0.41,0.15-0.67c-1.41,0.15-3.15-0.22-5.13-1.47c-2.54-1.59-2.74-2.06-2.73-2.44
				c0.01-0.22,0.14-0.42,0.34-0.52c1-0.5,5.51,1.57,7.39,2.81c0.25,0.16,0.45,0.34,0.62,0.52c0.83-0.2,1.48-0.63,1.9-1.15
				c0.29-0.35,0.49-0.74,0.59-1.12c-0.07,0.01-0.13,0.02-0.2,0.02c-1.6,0.16-3.2-0.53-4.91-2.1c-1.17-1.09-1.63-1.83-1.48-2.43
				c0.05-0.19,0.21-0.53,0.72-0.65c1.38-0.34,4.8,1.11,6.19,2.64c0.31,0.34,0.53,0.75,0.64,1.18c1.3-0.61,2.68-1.99,4.32-4.27
				c0.16-0.22,0.47-0.28,0.7-0.12c0.22,0.16,0.28,0.47,0.12,0.7c-1.89,2.64-3.46,4.14-5.05,4.75c-0.06,0.7-0.35,1.42-0.87,2.04
				c-0.51,0.61-1.25,1.13-2.18,1.41c0.1,0.45,0.01,0.93-0.28,1.39C125.98,173.47,123.56,174.53,120.9,174.53z M120.01,167.59
				c0.34,0.25,0.82,0.58,1.51,1.01c1.36,0.85,2.57,1.24,3.6,1.32C123.46,168.89,121.29,167.98,120.01,167.59z M123.5,163.34
				c0.06,0.16,0.28,0.57,1.17,1.39c1.49,1.37,2.84,1.99,4.13,1.84c0.11-0.01,0.21-0.03,0.32-0.05c-0.07-0.3-0.22-0.58-0.43-0.83
				C127.28,164.16,124.18,163.18,123.5,163.34z"/>
			<path class="st5" d="M134.14,173.16l-15.58,2.83l-14.15-77.21l-30.06,5.46l-48.99,87l5.26,28.71l62.84-11.41l4.3,23.48
				l30.06-5.46l-4.3-23.48l15.58-2.83L134.14,173.16z M55.3,187.48l25.96-45.57l7.24,39.54L55.3,187.48z"/>
		</g>
		<g>
			<path class="st5" d="M259.63,93.52c-0.58-5.33-1.65-10.07-3.2-14.22c-1.55-4.14-3.88-8.21-6.99-12.19
				c-3.11-3.98-7.35-7.44-12.7-10.37c-5.36-2.93-12.43-4.97-21.22-6.11c-18.29-2.38-32.55,0.86-42.78,9.74
				c-10.23,8.88-16.96,25.88-20.2,51.01c-1.32,10.22-1.64,19.67-0.98,28.34c0.66,8.68,2.26,15.65,4.78,20.93
				c3.45,7.42,8.33,13.34,14.65,17.77c6.31,4.43,14.96,7.36,25.95,8.79c19.6,2.55,34.12-1.21,43.57-11.29
				c9.45-10.08,15.72-27.11,18.81-51.1C260.69,114.14,260.8,103.7,259.63,93.52z"/>
			<path class="st8" d="M205.97,176.96c-2.4-0.08-4.96-0.3-7.61-0.64c-9.15-1.19-16.24-3.51-21.05-6.89
				c-4.75-3.33-8.35-7.72-10.99-13.41l-0.05-0.1c-1.92-4.02-3.18-9.75-3.73-17.03c-0.61-7.89-0.3-16.67,0.92-26.1
				c3.57-27.72,10.94-39.29,16.5-44.11c6.48-5.62,15.22-8.16,26.73-7.77c2.36,0.08,4.86,0.29,7.42,0.63
				c7.39,0.96,13.23,2.6,17.37,4.86c4.01,2.19,7.14,4.71,9.31,7.49c2.4,3.08,4.2,6.19,5.35,9.27c1.22,3.27,2.09,7.16,2.57,11.56
				c1.07,9.31,0.96,18.95-0.29,28.72c-2.77,21.54-8.13,36.67-15.92,44.98C226.7,174.58,218.03,177.38,205.97,176.96
				C205.97,176.96,205.97,176.96,205.97,176.96z"/>
			<g>
				<path class="st5" d="M225.54,93.82l0.13-3.79l-2.33-0.76c-0.1-1.29-0.31-2.57-0.62-3.8l1.97-1.45l-1.34-3.56l-2.44,0.2
					c-0.58-1.15-1.26-2.24-2.03-3.27l1.26-2.11l-2.6-2.77l-2.18,1.12c-0.98-0.83-2.02-1.59-3.12-2.26l0.35-2.42l-3.46-1.57
					l-1.58,1.86c-1.21-0.39-2.46-0.68-3.75-0.88l-0.59-2.37l-3.8-0.13l-0.75,2.33c-1.3,0.11-2.57,0.31-3.8,0.62l-1.46-1.96
					l-3.56,1.33l0.2,2.44c-1.15,0.59-2.24,1.27-3.27,2.04l-2.1-1.26l-2.78,2.59l1.12,2.19c-0.83,0.97-1.59,2.02-2.25,3.12
					l-2.42-0.36l-1.58,3.46l1.87,1.58c-0.39,1.21-0.69,2.47-0.88,3.75l-2.38,0.6l-0.13,3.79l2.34,0.76c0.1,1.3,0.31,2.57,0.62,3.8
					l-1.97,1.45l1.34,3.56l2.44-0.2c0.58,1.15,1.26,2.24,2.03,3.27l-1.26,2.11l2.6,2.77l2.18-1.12c0.97,0.83,2.02,1.59,3.12,2.26
					l-0.36,2.42l3.46,1.57l1.59-1.86c1.21,0.39,2.46,0.68,3.75,0.88l0.59,2.37l3.8,0.13l0.75-2.33c1.3-0.11,2.57-0.31,3.8-0.62
					l1.45,1.96l3.56-1.33l-0.19-2.44c1.15-0.59,2.24-1.27,3.27-2.04l2.1,1.26l2.78-2.59l-1.12-2.19c0.83-0.97,1.59-2.02,2.25-3.12
					l2.42,0.36l1.58-3.46l-1.87-1.58c0.39-1.21,0.69-2.46,0.88-3.75L225.54,93.82z M199.94,106.09c-8.3-0.28-14.79-7.24-14.51-15.54
					c0.28-8.31,7.24-14.8,15.54-14.52c8.3,0.28,14.79,7.24,14.51,15.55C215.19,99.88,208.24,106.37,199.94,106.09z"/>
			</g>
			<g>
				<path class="st9" d="M241.32,163.4l0.27-2.55l-1.53-0.63c-0.01-0.88-0.08-1.75-0.23-2.59l1.4-0.89l-0.71-2.47l-1.66,0.01
					c-0.34-0.81-0.73-1.58-1.2-2.31l0.95-1.36l-1.61-2l-1.53,0.64c-0.61-0.61-1.27-1.17-1.99-1.67l0.37-1.63l-2.25-1.24l-1.18,1.19
					c-0.81-0.34-1.64-0.59-2.48-0.79l-0.28-1.64l-2.55-0.29l-0.63,1.53c-0.88,0.01-1.74,0.09-2.59,0.24l-0.89-1.41l-2.47,0.72
					l0.01,1.66c-0.8,0.34-1.57,0.73-2.31,1.2l-1.36-0.96l-2,1.61l0.64,1.53c-0.59,0.61-1.17,1.27-1.67,1.99l-1.61-0.36L209,153.2
					l1.18,1.16c-0.33,0.82-0.59,1.64-0.79,2.49l-1.64,0.27l-0.27,2.55l1.53,0.64c-0.01,0.87,0.08,1.73,0.23,2.58l-1.41,0.89
					l0.72,2.47l1.66,0c0.34,0.8,0.73,1.57,1.2,2.3l-0.96,1.36l1.6,2.01l1.54-0.65c0.61,0.61,1.27,1.17,1.99,1.67l-0.37,1.63
					l2.25,1.24l1.18-1.18c0.81,0.33,1.64,0.58,2.48,0.78l0.28,1.64l2.55,0.29l0.63-1.54c0.87-0.01,1.74-0.09,2.59-0.24l0.89,1.41
					l2.46-0.72l0-1.66c0.8-0.34,1.57-0.73,2.31-1.2l1.35,0.96l2.01-1.6l-0.65-1.53c0.61-0.61,1.17-1.27,1.68-1.99l1.61,0.36
					l1.24-2.25l-1.18-1.16c0.33-0.82,0.58-1.64,0.78-2.48L241.32,163.4z M228.45,162.4c-1.19,2.16-3.9,2.96-6.06,1.77
					c-2.16-1.19-2.94-3.9-1.76-6.06c1.19-2.16,3.89-2.94,6.05-1.76C228.84,157.54,229.64,160.25,228.45,162.4z"/>
			</g>
			<path class="st10" d="M255.49,120.18l-2.98-2.06c0,0,0,0,0-0.01c-0.29-1.08-0.7-2.13-1.2-3.1l0.76-3l-4.32-4.63l-3.04,0.56
				c-0.94-0.56-1.95-1.04-3.01-1.41c0,0-0.01,0-0.01,0l-1.85-3.12l-6.33-0.22l-2.06,2.98c0,0-0.01,0-0.01,0
				c-1.08,0.29-2.12,0.7-3.1,1.2l-3-0.76l-4.63,4.32l0.56,3.04c0,0,0,0,0,0c-0.57,0.95-1.04,1.97-1.41,3.02l-3.12,1.85l-0.22,6.33
				l2.98,2.06c0.29,1.09,0.69,2.13,1.2,3.12c0,0,0,0,0,0l-0.76,2.99l4.32,4.63l3.02-0.55c0.95,0.56,1.97,1.04,3.04,1.41c0,0,0,0,0,0
				l1.85,3.11l6.33,0.22l2.06-2.98c1.09-0.29,2.14-0.7,3.13-1.2c0,0,0,0,0,0l2.98,0.76l4.63-4.32l-0.56-3.04
				c0.57-0.95,1.04-1.97,1.41-3.03c0,0,0,0,0,0l3.12-1.85L255.49,120.18z M235.76,129.8c-3.94-0.13-7.01-3.44-6.88-7.36
				c0.13-3.94,3.43-7.01,7.36-6.88c3.94,0.13,7.01,3.43,6.88,7.36C242.99,126.85,239.7,129.94,235.76,129.8z"/>
			<path class="st5" d="M277.24,69.65l0.52-1.26c0,0,0,0,0,0c0.37-0.19,0.73-0.43,1.05-0.68l1.16,0.04l1.36-1.95l-0.44-1.07
				c0.13-0.39,0.23-0.8,0.28-1.22c0,0,0,0,0,0l1-0.92l-0.42-2.34l-1.26-0.52c0,0,0,0,0,0c-0.19-0.37-0.42-0.72-0.68-1.04l0.04-1.16
				l-1.95-1.36l-1.07,0.44c0,0,0,0,0,0c-0.4-0.14-0.8-0.23-1.22-0.28l-0.92-1l-2.34,0.42L271.82,57c-0.38,0.19-0.73,0.42-1.05,0.68
				c0,0,0,0,0,0l-1.16-0.04l-1.36,1.95l0.44,1.07c-0.13,0.39-0.23,0.8-0.28,1.23c0,0,0,0,0,0l-1,0.92l0.42,2.34l1.26,0.52
				c0.19,0.38,0.43,0.73,0.69,1.05c0,0,0,0,0,0l-0.04,1.15l1.95,1.36l1.07-0.44c0.4,0.14,0.8,0.23,1.22,0.28c0,0,0,0,0,0l0.92,1
				L277.24,69.65z M272.16,63.17c-0.26-1.46,0.71-2.84,2.16-3.1c1.46-0.26,2.84,0.71,3.1,2.16c0.26,1.46-0.71,2.84-2.16,3.1
				C273.81,65.59,272.42,64.62,272.16,63.17z"/>
			<path class="st5" d="M249.81,63.02l-0.76-0.64c1.33-1.57,3.21-3.56,6.01-5.03l0.46,0.89C252.53,59.79,250.62,62.05,249.81,63.02z
				"/>
			<path class="st5" d="M257.79,57.33l-0.39-0.92c3.78-1.62,7.73-2.25,11.74-1.88l-0.09,1C265.2,55.16,261.42,55.78,257.79,57.33z"
				/>
			<path class="st5" d="M255.9,64.25l-0.83-0.56c2.05-3.02,6.11-5.64,9.87-6.39l0.19,0.98C261.62,58.98,257.82,61.43,255.9,64.25z"
				/>
			<path class="st10" d="M189.54,160.49c-0.13,0-0.26-0.05-0.36-0.15l-2.1-2.16c-1.07-0.1-2.12-0.3-3.15-0.59l-3.27,1.44
				c-0.16,0.07-0.34,0.05-0.48-0.04l-5.48-3.63c-0.14-0.09-0.23-0.25-0.22-0.42l0.05-3.56c-0.67-0.83-1.26-1.73-1.77-2.68
				l-2.81-1.09c-0.16-0.06-0.28-0.2-0.31-0.37l-1.31-6.44c-0.03-0.17,0.02-0.34,0.14-0.46l2.16-2.1c0.1-1.06,0.3-2.12,0.58-3.15
				l-1.44-3.26c-0.07-0.16-0.05-0.34,0.04-0.48l3.63-5.48c0.09-0.14,0.23-0.23,0.42-0.22l3.56,0.05c0.84-0.67,1.74-1.26,2.68-1.76
				l1.09-2.81c0.06-0.16,0.2-0.28,0.37-0.31l6.44-1.31c0.17-0.03,0.34,0.02,0.46,0.14l2.09,2.16c1.06,0.1,2.12,0.3,3.15,0.58
				l3.26-1.44c0.16-0.07,0.34-0.05,0.48,0.04l5.48,3.63c0.14,0.09,0.23,0.25,0.22,0.42l-0.05,3.57c0.67,0.83,1.26,1.73,1.76,2.67
				l2.81,1.09c0.16,0.06,0.28,0.2,0.31,0.37l1.31,6.44c0.03,0.17-0.02,0.34-0.14,0.46l-2.16,2.1c-0.1,1.05-0.3,2.11-0.58,3.14
				l1.44,3.27c0.07,0.16,0.05,0.34-0.04,0.48l-3.63,5.47c-0.09,0.14-0.24,0.21-0.42,0.22l-3.56-0.05c-0.83,0.66-1.73,1.25-2.68,1.76
				l-1.09,2.81c-0.06,0.16-0.2,0.28-0.37,0.31l-6.44,1.31C189.61,160.48,189.58,160.49,189.54,160.49z M183.91,156.56
				c0.05,0,0.09,0.01,0.14,0.02c1.07,0.31,2.18,0.52,3.31,0.62c0.12,0.01,0.23,0.06,0.32,0.15l2.04,2.1l5.9-1.2l1.06-2.73
				c0.04-0.11,0.13-0.21,0.24-0.26c1-0.52,1.95-1.14,2.82-1.85c0.09-0.07,0.19-0.12,0.32-0.11l3.47,0.05l3.33-5.02l-1.4-3.18
				c-0.05-0.11-0.05-0.23-0.02-0.34c0.32-1.09,0.52-2.21,0.62-3.31c0.01-0.12,0.06-0.23,0.15-0.32l2.1-2.04l-1.2-5.9l-2.73-1.06
				c-0.12-0.04-0.21-0.13-0.27-0.24c-0.52-1-1.14-1.94-1.85-2.81c-0.08-0.09-0.12-0.21-0.11-0.33l0.05-3.47l-5.02-3.33l-3.18,1.4
				c-0.11,0.05-0.23,0.05-0.34,0.02c-1.08-0.32-2.2-0.52-3.32-0.62c-0.12-0.01-0.23-0.06-0.32-0.15l-2.03-2.1l-5.9,1.2l-1.06,2.73
				c-0.04,0.11-0.13,0.21-0.24,0.26c-1,0.52-1.94,1.14-2.82,1.85c-0.09,0.07-0.21,0.13-0.33,0.11l-3.47-0.05l-3.33,5.02l1.4,3.18
				c0.06,0.14,0.06,0.29-0.01,0.43c-0.28,1-0.49,2.11-0.58,3.23c-0.01,0.12-0.06,0.23-0.15,0.32l-2.1,2.04l1.2,5.9l2.73,1.06
				c0.12,0.05,0.22,0.14,0.27,0.26c0.52,0.99,1.14,1.93,1.84,2.79c0.08,0.09,0.12,0.21,0.12,0.33l-0.05,3.47l5.02,3.33l3.18-1.4
				C183.77,156.57,183.84,156.56,183.91,156.56z M188.83,153.32c-2.53,0-5.08-0.72-7.34-2.21c-2.97-1.97-4.99-4.97-5.7-8.46
				c-0.71-3.49-0.02-7.04,1.95-10.01c0,0,0,0,0,0c4.07-6.12,12.35-7.81,18.47-3.75c6.12,4.06,7.8,12.35,3.74,18.47
				C197.39,151.23,193.15,153.32,188.83,153.32z M178.57,133.19c-1.82,2.74-2.46,6.03-1.8,9.26c0.66,3.23,2.53,6,5.27,7.82
				c5.67,3.75,13.33,2.2,17.08-3.46c3.75-5.66,2.2-13.33-3.46-17.09C189.99,125.97,182.33,127.53,178.57,133.19L178.57,133.19z"/>
		</g>
		<g>
			<path class="st5" d="M380.03,182.18l-15.69-2.12l10.38-77.81l-30.28-4.09l-73.45,67.63l-3.86,28.93l63.29,8.54l-3.16,23.66
				l30.28,4.09l3.16-23.66l15.69,2.12L380.03,182.18z M300.61,171.46l38.76-35.33l-5.32,39.84L300.61,171.46z"/>
			<path class="st8" d="M348.34,230.27c-0.03,0-0.06,0-0.09-0.01c-0.27-0.05-0.45-0.31-0.4-0.58l23.33-127.93
				c0.05-0.27,0.31-0.44,0.58-0.4c0.27,0.05,0.45,0.31,0.4,0.58l-23.33,127.93C348.78,230.1,348.57,230.27,348.34,230.27z"/>
			<g>
				<path class="st8" d="M369.03,103.9c-0.02,0.45-0.39,0.81-0.85,0.79s-0.81-0.39-0.79-0.85s0.39-0.81,0.85-0.79
					C368.69,103.07,369.05,103.45,369.03,103.9z"/>
				<path class="st8" d="M365.7,121.2c-0.02,0.45-0.39,0.81-0.85,0.79c-0.45-0.02-0.81-0.39-0.79-0.85
					c0.02-0.45,0.39-0.81,0.85-0.79C365.36,120.37,365.72,120.75,365.7,121.2z"/>
				<path class="st8" d="M362.37,138.5c-0.02,0.45-0.39,0.81-0.85,0.79s-0.81-0.39-0.79-0.85s0.39-0.81,0.85-0.79
					C362.03,137.67,362.38,138.05,362.37,138.5z"/>
				<path class="st8" d="M355.81,156.51c-0.02,0.45-0.39,0.81-0.85,0.79c-0.45-0.02-0.81-0.39-0.79-0.85s0.39-0.81,0.85-0.79
					C355.48,155.68,355.83,156.06,355.81,156.51z"/>
				<path class="st8" d="M355.7,173.1c-0.02,0.45-0.39,0.81-0.85,0.79c-0.45-0.02-0.81-0.39-0.79-0.85s0.39-0.81,0.85-0.79
					C355.36,172.27,355.72,172.65,355.7,173.1z"/>
				<path class="st8" d="M352.37,190.4c-0.02,0.45-0.39,0.81-0.85,0.79c-0.45-0.02-0.81-0.39-0.79-0.85
					c0.02-0.45,0.39-0.81,0.85-0.79S352.39,189.95,352.37,190.4z"/>
				<path class="st8" d="M349.04,207.7c-0.02,0.45-0.39,0.81-0.85,0.79c-0.45-0.02-0.81-0.39-0.79-0.85s0.39-0.81,0.85-0.79
					S349.05,207.25,349.04,207.7z"/>
				<path class="st8" d="M345.71,225.01c-0.02,0.45-0.39,0.81-0.85,0.79s-0.81-0.39-0.79-0.85s0.39-0.81,0.85-0.79
					S345.72,224.55,345.71,225.01z"/>
			</g>
			<path class="st8" d="M355,156.98c-0.23,0-0.44-0.16-0.49-0.4c-0.06-0.27,0.11-0.54,0.38-0.59l2.48-0.53
				c0.27-0.05,0.54,0.11,0.59,0.38c0.06,0.27-0.11,0.54-0.38,0.59l-2.48,0.53C355.07,156.98,355.03,156.98,355,156.98z"/>
			<g>
				<path class="st8" d="M363.29,147.77c0,0-2.24,5.83-2.99,9.36c-0.75,3.53-0.8,11.42-0.8,11.42"/>
				<path class="st8" d="M359.5,169.06C359.5,169.06,359.49,169.06,359.5,169.06c-0.28,0-0.5-0.23-0.5-0.5
					c0-0.32,0.05-7.98,0.81-11.53c0.75-3.53,2.92-9.2,3.01-9.44c0.1-0.26,0.39-0.38,0.65-0.29c0.26,0.1,0.39,0.39,0.29,0.65
					c-0.02,0.06-2.23,5.83-2.97,9.29c-0.73,3.44-0.79,11.25-0.79,11.32C360,168.83,359.77,169.06,359.5,169.06z"/>
			</g>
		</g>
	</g>
</g>
<g id="Character_1_">
	<g>
		<path class="st8" d="M176.65,255.37c1.39-22.4-1.17-63.13,40.94-57.74c45.14,5.78,32.22,58.56,32.22,58.56L176.65,255.37z"/>
		<g>
			<circle class="st10" cx="205.72" cy="223.53" r="18.38"/>
			<path class="st8" d="M208.13,205.18c-8.7-1.49-18.01,4.93-18.93,11.43l34.51,3.17C222.49,212.38,215.03,206.36,208.13,205.18z"/>
			<path class="st8" d="M219.78,223.07c-0.25,4.8-2.86,8.57-5.85,8.42c-2.98-0.15-5.2-4.17-4.95-8.98c0.25-4.8,2.86-8.57,5.85-8.42
				C217.81,214.25,220.02,218.27,219.78,223.07z"/>
			<path class="st5" d="M205.72,242.91c-10.68,0-19.38-8.69-19.38-19.38c0-10.68,8.69-19.38,19.38-19.38
				c10.68,0,19.38,8.69,19.38,19.38C225.09,234.21,216.4,242.91,205.72,242.91z M205.72,206.16c-9.58,0-17.38,7.79-17.38,17.38
				s7.79,17.38,17.38,17.38c9.58,0,17.38-7.79,17.38-17.38S215.3,206.16,205.72,206.16z"/>
		</g>
		<path class="st11" d="M244.69,254.81c-0.04,0-0.08,0-0.12-0.01c-0.27-0.06-0.43-0.34-0.37-0.6c0.03-0.13,3.22-13.69-0.09-27.4
			c-0.07-0.27,0.1-0.54,0.37-0.6c0.26-0.06,0.54,0.1,0.6,0.37c3.37,13.95,0.12,27.73,0.09,27.87
			C245.12,254.65,244.91,254.81,244.69,254.81z"/>
		<path class="st11" d="M241.9,219.29c-0.19,0-0.37-0.11-0.46-0.29c-1.29-2.81-2.88-5.38-4.74-7.66c-0.17-0.21-0.14-0.53,0.07-0.7
			c0.21-0.18,0.53-0.14,0.7,0.07c1.91,2.34,3.56,4.99,4.88,7.87c0.12,0.25,0,0.55-0.25,0.66
			C242.04,219.27,241.97,219.29,241.9,219.29z"/>
		<path class="st8" d="M82.94,360.45c-0.12,0-0.25,0-0.37,0c-2.76-0.08-4.94-2.38-4.86-5.14c0.08-2.76,2.35-4.89,5.14-4.86
			c0.03,0,0.06,0,0.1,0c2.89,0,9.84-3.51,24.38-26.43c0.78-1.23,2.06-2.06,3.5-2.27c1.44-0.21,2.91,0.22,4,1.18
			c17.94,15.64,36.95,25.38,37.14,25.48c2.46,1.25,3.44,4.26,2.19,6.72c-1.25,2.46-4.26,3.45-6.72,2.2
			c-0.76-0.38-17.37-8.88-34.8-23.15C100.46,352.5,91.41,360.45,82.94,360.45z"/>
		<path class="st8" d="M113.87,322.03c-0.14,0-0.28-0.01-0.43-0.03c-1.64-0.23-2.78-1.75-2.55-3.39c0.71-4.98-0.17-23.63-6.47-38.13
			c-0.57-1.32-0.13-2.86,1.06-3.68c13.7-9.33,42.88-10.45,44.11-10.49c1.65-0.04,3.04,1.24,3.1,2.89c0.06,1.66-1.24,3.04-2.89,3.1
			c-0.27,0.01-25.78,0.99-38.89,8.2c5.58,14.44,6.85,32.44,5.92,38.95C116.62,320.95,115.34,322.03,113.87,322.03z"/>
		<path class="st5" d="M118.91,318.15c-2-4.71-10.99-4.17-16.27-0.14c-2.82,2.16-6.64,8.64-7.04,10.99
			c-0.4,2.35,1.23,4.48,4.02,4.24c3.45-0.3,8.18-5.31,8.18-5.31c-3.15,3.09,0.91,5.27,6.98,0.8
			C118.15,326.25,121.15,323.42,118.91,318.15z"/>
		<path class="st8" d="M290.91,256.69c-0.05,0-0.09-0.01-0.14-0.02c-0.27-0.08-0.42-0.35-0.34-0.62c1.33-4.64,2.79-7.47,4.7-9.05
			c-0.29-1-0.26-2.14,0.15-3.26c0.4-1.09,1.18-2.17,2.36-3c-0.58-0.63-0.79-1.45-0.59-2.38c0.23-1.04,0.98-2.17,2.14-3.16
			c-0.45-0.52-0.56-1.09-0.57-1.51c-0.03-2.98,5.51-7.53,11.76-8.38c0.27-0.05,0.53,0.15,0.56,0.43c0.04,0.27-0.15,0.53-0.43,0.56
			c-5.94,0.81-10.92,5.11-10.9,7.38c0,0.37,0.14,0.66,0.36,0.9c2.25-1.57,5.57-2.58,9.28-1.86c3.07,0.59,4.32,1.24,4.17,2.17
			c-0.27,1.75-6.81,2.12-11.19,1.59c-0.99-0.12-1.72-0.35-2.25-0.65c-1.09,0.89-1.79,1.89-1.97,2.73c-0.16,0.75,0.08,1.27,0.5,1.64
			c1.86-0.96,4.47-1.36,7.92-0.59c4.54,1,4.71,1.55,4.81,1.88c0.07,0.24,0.01,0.48-0.16,0.66c-0.96,1.01-7.91,0.53-11.4-0.32
			c-0.45-0.11-0.86-0.26-1.2-0.45c-1.16,0.73-1.9,1.71-2.27,2.71c-0.29,0.8-0.36,1.59-0.23,2.3c0.18-0.11,0.36-0.21,0.55-0.29
			c2.07-0.98,4.57-0.82,7.65,0.5c2.04,0.88,3.03,1.65,3.1,2.44c0.02,0.23-0.02,0.68-0.57,1.04c-1.52,1.01-6.87,0.86-9.65-0.62
			c-0.66-0.35-1.17-0.87-1.54-1.49c-1.63,1.49-2.95,4.17-4.16,8.36C291.32,256.55,291.12,256.69,290.91,256.69z M296.33,247.36
			c0.28,0.51,0.69,0.93,1.22,1.22c2.26,1.2,6.7,1.48,8.36,0.8c0.34-0.14,0.39-0.25,0.39-0.25c0,0-0.05-0.56-2.5-1.61
			c-2.8-1.2-5.04-1.37-6.83-0.52C296.75,247.11,296.54,247.22,296.33,247.36z M299.67,240.79c0.09,0.03,0.17,0.05,0.26,0.07
			c3.53,0.86,8.3,1.01,9.93,0.74c-0.51-0.21-1.54-0.56-3.64-1.02C303.45,239.98,301.28,240.17,299.67,240.79z M300.93,235.17
			c0.45,0.17,0.96,0.27,1.44,0.32c4.98,0.59,9.38-0.11,10.04-0.73c-0.17-0.15-0.84-0.58-3.33-1.06
			C305.79,233.08,302.93,233.91,300.93,235.17z"/>
		<path class="st8" d="M160.73,358.78c0.66-0.21,0.44-0.85-0.3-0.85h-13.54c-25.78-2.73-43.79,0.93-32.44,1.79
			c11.35,0.86-0.8,0.68-9.09,3.82c-8.29,3.14,61.65,3.93,68.02,0C179.24,359.92,151.59,361.71,160.73,358.78z"/>
		<polygon class="st5" points="257.67,362.77 139.87,358.86 134.98,244.64 274.09,247.75 		"/>
		<path class="st8" d="M176.65,360.58c-0.26,0-0.48-0.2-0.5-0.46l-9.44-114.72c-0.02-0.28,0.18-0.52,0.46-0.54
			c0.28-0.02,0.52,0.18,0.54,0.46l9.44,114.72c0.02,0.28-0.18,0.52-0.46,0.54C176.68,360.58,176.67,360.58,176.65,360.58z"/>
		<g>
			<polygon class="st5" points="257.67,362.77 289.33,357.95 299.31,251.74 274.09,247.75 			"/>
			<polygon class="st12" points="257.67,362.77 289.33,357.95 299.31,251.74 274.09,247.75 			"/>
		</g>
		<path class="st8" d="M149.94,336.85l-2.9-67.86c-0.3-7.08,5.44-12.95,12.53-12.79l88.06,1.97c7.35,0.16,12.91,6.72,11.87,14
			l-9.76,68.39c-0.88,6.2-6.29,10.74-12.55,10.53l-75.39-2.5C155.38,348.37,150.21,343.26,149.94,336.85z"/>
		<g>
			<path class="st10" d="M159.45,277.02l13.62,0.43l-0.11,3.51l-8.53-0.27l-0.08,2.61l7.91,0.25l-0.11,3.36l-7.91-0.25l-0.1,3.24
				l8.78,0.28l-0.12,3.73l-13.87-0.44L159.45,277.02z"/>
			<path class="st10" d="M175.6,294l0.52-16.45l8.47,0.27c1.57,0.05,2.77,0.22,3.59,0.52c0.82,0.3,1.48,0.82,1.96,1.56
				c0.49,0.75,0.71,1.64,0.68,2.69c-0.03,0.91-0.25,1.69-0.66,2.34c-0.41,0.65-0.96,1.17-1.66,1.56c-0.44,0.25-1.04,0.45-1.81,0.59
				c0.6,0.22,1.03,0.44,1.3,0.65c0.18,0.14,0.44,0.44,0.79,0.89c0.34,0.45,0.57,0.8,0.68,1.04l2.31,4.85l-5.74-0.18l-2.56-5.11
				c-0.32-0.66-0.62-1.09-0.88-1.3c-0.36-0.27-0.77-0.41-1.23-0.42l-0.45-0.01l-0.21,6.68L175.6,294z M181.02,284.38l2.14,0.07
				c0.23,0.01,0.68-0.05,1.35-0.18c0.34-0.06,0.62-0.22,0.84-0.49c0.22-0.27,0.34-0.58,0.35-0.94c0.02-0.53-0.14-0.94-0.47-1.24
				c-0.33-0.3-0.96-0.46-1.88-0.49l-2.23-0.07L181.02,284.38z"/>
			<path class="st10" d="M193.48,294.57l0.52-16.45l8.47,0.27c1.57,0.05,2.77,0.22,3.59,0.52c0.82,0.3,1.48,0.82,1.96,1.56
				c0.49,0.75,0.71,1.64,0.68,2.69c-0.03,0.91-0.25,1.69-0.66,2.34c-0.41,0.65-0.96,1.17-1.66,1.56c-0.44,0.25-1.04,0.45-1.81,0.59
				c0.6,0.22,1.03,0.44,1.3,0.65c0.18,0.14,0.44,0.44,0.79,0.89c0.34,0.45,0.57,0.8,0.68,1.04l2.31,4.85l-5.74-0.18l-2.56-5.11
				c-0.32-0.66-0.62-1.09-0.88-1.3c-0.36-0.27-0.77-0.41-1.23-0.42l-0.45-0.01l-0.21,6.68L193.48,294.57z M198.9,284.95l2.14,0.07
				c0.23,0.01,0.68-0.05,1.35-0.18c0.34-0.06,0.62-0.22,0.84-0.49c0.22-0.27,0.34-0.58,0.35-0.94c0.02-0.53-0.14-0.94-0.47-1.24
				c-0.33-0.3-0.96-0.46-1.88-0.49L199,281.6L198.9,284.95z"/>
			<path class="st10" d="M210.52,286.89c0.09-2.69,0.9-4.75,2.44-6.2c1.54-1.45,3.65-2.13,6.32-2.05c2.74,0.09,4.82,0.89,6.26,2.41
				c1.43,1.52,2.11,3.6,2.03,6.25c-0.06,1.92-0.44,3.49-1.12,4.7c-0.69,1.21-1.65,2.14-2.9,2.78c-1.25,0.65-2.78,0.94-4.61,0.88
				c-1.86-0.06-3.38-0.4-4.58-1.03c-1.2-0.63-2.15-1.6-2.87-2.9C210.78,290.43,210.46,288.81,210.52,286.89z M215.6,287.07
				c-0.05,1.66,0.22,2.86,0.81,3.61c0.59,0.75,1.42,1.13,2.48,1.17c1.09,0.03,1.95-0.29,2.57-0.99c0.62-0.69,0.96-1.96,1.02-3.8
				c0.05-1.55-0.23-2.69-0.83-3.42c-0.6-0.73-1.44-1.12-2.51-1.15c-1.03-0.03-1.86,0.3-2.5,1.01
				C216,284.21,215.65,285.4,215.6,287.07z"/>
			<path class="st10" d="M230.11,295.74l0.52-16.45l8.47,0.27c1.57,0.05,2.77,0.22,3.59,0.52c0.82,0.3,1.48,0.82,1.96,1.56
				c0.49,0.75,0.71,1.64,0.68,2.69c-0.03,0.91-0.25,1.69-0.66,2.34c-0.41,0.65-0.96,1.17-1.66,1.56c-0.44,0.25-1.04,0.45-1.81,0.59
				c0.6,0.22,1.03,0.44,1.3,0.65c0.18,0.14,0.44,0.44,0.79,0.89c0.34,0.45,0.57,0.8,0.68,1.04l2.31,4.85l-5.74-0.18l-2.56-5.11
				c-0.32-0.66-0.62-1.09-0.88-1.3c-0.36-0.27-0.77-0.41-1.23-0.42l-0.45-0.01l-0.21,6.68L230.11,295.74z M235.53,286.11l2.14,0.07
				c0.23,0.01,0.68-0.05,1.35-0.18c0.34-0.06,0.62-0.22,0.84-0.49c0.22-0.27,0.34-0.58,0.35-0.94c0.02-0.53-0.14-0.94-0.47-1.24
				c-0.33-0.3-0.96-0.46-1.88-0.49l-2.23-0.07L235.53,286.11z"/>
		</g>
		<path class="st10" d="M238.2,323.69c-0.36,0-0.71-0.14-0.97-0.43l-8.56-9.37l-9.24,8.44c-0.54,0.49-1.37,0.45-1.85-0.08
			l-8.56-9.37l-9.24,8.44c-0.54,0.49-1.37,0.45-1.85-0.08l-8.56-9.37l-9.24,8.44c-0.26,0.24-0.6,0.36-0.94,0.34
			c-0.35-0.02-0.68-0.17-0.91-0.43l-8.56-9.37l-9.24,8.44c-0.53,0.49-1.37,0.45-1.85-0.08c-0.49-0.54-0.45-1.37,0.08-1.85
			l10.21-9.33c0.53-0.49,1.37-0.45,1.85,0.08l8.56,9.37l9.24-8.44c0.26-0.24,0.6-0.36,0.94-0.34c0.35,0.02,0.68,0.17,0.91,0.43
			l8.56,9.37l9.24-8.44c0.53-0.49,1.37-0.45,1.85,0.08l8.56,9.37l9.24-8.44c0.53-0.49,1.36-0.45,1.85,0.08l9.45,10.34
			c0.49,0.54,0.45,1.37-0.08,1.85C238.83,323.58,238.52,323.69,238.2,323.69z"/>
		<g>
			<polygon class="st5" points="79.95,365.2 73.69,362.21 68.11,335.05 71.14,331.71 			"/>
			<g>
				<polygon class="st5" points="79.95,365.2 88.26,360.35 81.14,337.96 71.14,331.71 				"/>
				<polygon class="st12" points="79.95,365.2 88.26,360.35 81.14,337.96 71.14,331.71 				"/>
			</g>
		</g>
		<path class="st8" d="M216.15,370.14c-0.24,0-0.47,0-0.69-0.01c-2.76-0.08-4.94-2.38-4.86-5.14c0.08-2.76,2.36-4.93,5.14-4.86
			c7.7,0.25,24.01-4.48,33.32-13.52c0.58-0.56,1.28-0.97,2.05-1.2c15.79-4.74,21.66,4.83,21.91,5.24l-8.61,5.09
			c0,0,0.03,0.07,0.12,0.18c-0.1-0.13-2.33-3.04-9.45-1.24C243.37,365.35,225.43,370.14,216.15,370.14z"/>
		<g>
			<polygon class="st5" points="215.6,376.78 197.38,375.63 195.95,342.06 220.42,342.97 			"/>
			<g>
				<polygon class="st5" points="215.6,376.78 219.85,372.55 222.49,351.61 220.42,342.97 				"/>
				<polygon class="st12" points="215.6,376.78 219.85,372.55 222.49,351.61 220.42,342.97 				"/>
			</g>
		</g>
		<path class="st8" d="M321.11,364.07c-0.63,0-1.27-0.2-1.81-0.61c-10.39-7.9-24.45-21.93-29.84-35.46c-0.08-0.2-0.14-0.4-0.17-0.61
			c-2.63-15.63-5.14-48.54-5.25-49.93c-0.13-1.65,1.11-3.09,2.76-3.22c1.65-0.12,3.09,1.11,3.22,2.76
			c0.03,0.34,2.56,33.57,5.13,49.07c5.38,13.16,19.96,26.67,27.78,32.61c1.32,1,1.58,2.88,0.57,4.2
			C322.91,363.66,322.02,364.07,321.11,364.07z"/>
		<path class="st8" d="M334.98,365.58c-2.32,0-4.95-1.05-7.81-3.12c-1.34-0.97-1.64-2.85-0.67-4.19c0.97-1.34,2.85-1.64,4.19-0.67
			c2.48,1.79,3.83,1.99,4.3,1.99c1.66,0,3,1.34,3,3C337.98,364.24,336.64,365.58,334.98,365.58z"/>
		<path class="st5" d="M328.01,362.37c3.21-9.54,16.37-7.65,20.9-6.24c4.53,1.42,8.61,3.2,11.07,4.8c2.45,1.6,2.49,4.29-0.78,5.82
			c-4.04,1.89-14.16,0.21-14.16,0.21c5.24,2.29-0.01,5.97-9.21,2.36C332.84,368.15,326.87,365.87,328.01,362.37z"/>
		<path class="st8" d="M296.06,281.57c-1.19,8.1-7.9,14.08-13.36,13.27c-5.46-0.8-5.68-8.04-4.49-16.14c1.19-8.1,3.35-14,8.81-13.2
			C292.48,266.3,297.25,273.46,296.06,281.57z"/>
		<circle class="st8" cx="164.08" cy="248.41" r="0.82"/>
		<path class="st8" d="M172.41,254.31c0,0.45-0.37,0.82-0.82,0.82c-0.45,0-0.82-0.37-0.82-0.82c0-0.45,0.37-0.82,0.82-0.82
			C172.04,253.49,172.41,253.86,172.41,254.31z"/>
		<path class="st8" d="M173.33,351.21c0,0.45-0.37,0.82-0.82,0.82c-0.45,0-0.82-0.37-0.82-0.82c0-0.45,0.37-0.82,0.82-0.82
			C172.96,350.39,173.33,350.76,173.33,351.21z"/>
		<path class="st8" d="M180.84,357.12c0,0.45-0.37,0.82-0.82,0.82c-0.45,0-0.82-0.37-0.82-0.82c0-0.45,0.37-0.82,0.82-0.82
			C180.47,356.3,180.84,356.66,180.84,357.12z"/>
	</g>
</g>
<g id="Robot_Parts">
	<g>
		<path class="st8" d="M36.71,366.95c-2.38,0-5.6-1.44-7.33-3.95c-0.16-0.23-0.1-0.54,0.13-0.7c0.23-0.16,0.54-0.1,0.7,0.13
			c1.87,2.69,5.98,4.13,7.81,3.28c0.19-0.09,0.35-0.2,0.47-0.34c-1.63-0.75-3.12-2.23-3.53-4.48c-0.23-1.27-0.41-2.98,0.64-3.22
			c1.43-0.32,3.31,3.15,4.03,5.78c0.13,0.49,0.18,0.94,0.13,1.34c0.63,0.17,1.25,0.22,1.79,0.14c0.43-0.06,1.05-0.24,1.37-0.75
			c-1.21-0.82-2.03-2.27-2.3-4.19c-0.39-2.73-0.1-3.21,0.21-3.44c0.2-0.15,0.45-0.18,0.69-0.08c1.07,0.46,2.37,4.33,2.61,6.53
			c0.03,0.24,0.03,0.47,0,0.69c0.41,0.16,0.86,0.25,1.35,0.26c0.87,0.05,1.72-0.23,2.41-0.63c-0.14-0.09-0.28-0.19-0.4-0.29
			c-1.04-0.89-1.46-2.3-1.28-4.33c0.14-1.57,0.49-2.42,1.12-2.69c0.22-0.1,0.67-0.19,1.21,0.24c1.08,0.86,2.09,3.6,1.73,5.56
			c-0.08,0.41-0.25,0.79-0.5,1.15c1.83,0.32,4.42-0.2,6.64-0.75c0.27-0.07,0.54,0.1,0.61,0.37s-0.1,0.54-0.37,0.61
			c-2.71,0.67-5.63,1.21-7.69,0.62c-0.92,0.73-2.21,1.17-3.5,1.16c-0.59-0.01-1.14-0.12-1.64-0.31c-0.39,0.67-1.13,1.12-2.12,1.27
			c-0.66,0.1-1.45,0.04-2.24-0.19c-0.23,0.38-0.56,0.68-1.01,0.89C37.95,366.84,37.36,366.95,36.71,366.95z M35.85,358.67
			c-0.06,0.15-0.16,0.66,0.08,2.04c0.33,1.84,1.52,3.06,2.84,3.71c-0.01-0.21-0.05-0.45-0.12-0.71
			C37.87,360.86,36.38,358.89,35.85,358.67z M41.42,357.8c-0.01,0.38,0.03,1.01,0.18,2.06c0.2,1.43,0.73,2.52,1.52,3.22
			C42.88,361.07,41.99,358.75,41.42,357.8z M47.71,356.93C47.71,356.93,47.71,356.93,47.71,356.93c0,0-0.38,0.19-0.52,1.86
			c-0.15,1.68,0.16,2.82,0.93,3.48c0.18,0.15,0.38,0.28,0.6,0.38c0.28-0.31,0.48-0.66,0.54-1.03c0.27-1.45-0.42-3.57-1.2-4.43
			C47.87,356.97,47.74,356.93,47.71,356.93z"/>
		<g>
			<polygon class="st8" points="183.07,374.51 185.78,369.81 183.07,365.11 180.17,365.11 181.81,369.81 180.17,374.51 			"/>
			<path class="st8" d="M180.36,372.26c-1.35,0-2.45-1.1-2.45-2.45c0-1.35,1.1-2.44,2.45-2.44l-4.61-0.92l-1.22,3.72l2.06,3.14
				L180.36,372.26z"/>
			<path class="st5" d="M180.76,365.11h-5.43l-2.71,4.7l2.71,4.7h5.43l2.71-4.7L180.76,365.11z M178.05,372.26
				c-1.35,0-2.45-1.1-2.45-2.45c0-1.35,1.1-2.44,2.45-2.44c1.35,0,2.44,1.09,2.44,2.44C180.49,371.16,179.4,372.26,178.05,372.26z"
				/>
		</g>
		<g>
			<polygon class="st5" points="372.09,364.8 370.08,361.3 372.09,357.81 374.25,357.81 373.03,361.3 374.25,364.8 			"/>
			<path class="st5" d="M374.1,363.12c1,0,1.82-0.82,1.82-1.82c0-1-0.82-1.81-1.82-1.81l3.42-0.68l0.91,2.76l-1.53,2.33
				L374.1,363.12z"/>
			<path class="st8" d="M373.81,357.81h4.03l2.01,3.49l-2.01,3.49h-4.03l-2.01-3.49L373.81,357.81z M375.82,363.12
				c1,0,1.82-0.82,1.82-1.82c0-1-0.82-1.81-1.82-1.81c-1,0-1.81,0.81-1.81,1.81C374.01,362.31,374.82,363.12,375.82,363.12z"/>
		</g>
		<g>
			<path class="st8" d="M297.15,369.43h4.52c1.18,0,2.14-0.96,2.14-2.14l0,0c0-1.18-0.96-2.14-2.14-2.14h-4.52
				c-1.18,0-2.14,0.96-2.14,2.14l0,0C295.01,368.47,295.97,369.43,297.15,369.43z"/>
			<path class="st5" d="M289.93,365.39c1.12-2.37,3.82-3.44,6.04-2.39c2.22,1.05,3.12,3.81,2,6.18c-1.12,2.37-3.82,3.44-6.04,2.39
				C289.71,370.53,288.82,367.76,289.93,365.39z"/>
			
				<rect x="293.27" y="362.24" transform="matrix(-0.9045 -0.4265 0.4265 -0.9045 403.2057 824.8632)" class="st8" width="1.37" height="10.1"/>
		</g>
	</g>
</g>
</svg>
